<svg xmlns="http://www.w3.org/2000/svg" width="1920" height="1129"><defs><clipPath id="a"><path transform="translate(943)" fill="#fff" d="M0 0h977v1127H0z"/></clipPath><clipPath id="b"><path fill="#fff" d="M0 0h933v1129H0z"/></clipPath></defs><path fill="#ebe5e4" d="M0 0h1920v1129H0z"/><g opacity=".4" fill="#dedbda" stroke="#ebe5e4" stroke-width="32" clip-path="url(#a)"><path d="M1587.668 349.03a152.666 152.666 0 00-216.086 0l-6.185 6.194-6.218-6.205a152.752 152.752 0 10-216.023 216.026l196.646 196.7c14.127 13.739 37.517 13.338 51.213 0l196.645-196.69a152.635 152.635 0 00.008-216.025zm-45.956 170.052l-.013.013-176.294 176.335-176.307-176.348a87.761 87.761 0 11124.137-124.089l29.228 29.187a32.494 32.494 0 0045.954-.033l29.132-29.171a87.776 87.776 0 01124.163 124.106zM1397.899 143.397V15.646a32.5 32.5 0 10-64.993 0v127.751a32.5 32.5 0 1064.993 0zM843.303 570.264h127.749a32.5 32.5 0 000-65H843.303a32.5 32.5 0 000 65zM1365.406 899.628a32.5 32.5 0 00-32.5 32.5v127.751a32.5 32.5 0 1064.993 0V932.125a32.5 32.5 0 00-32.493-32.497zM1920.002 537.764a32.5 32.5 0 00-32.495-32.5h-127.754a32.5 32.5 0 000 65h127.754a32.5 32.5 0 0032.495-32.5zM1109.535 281.883a32.5 32.5 0 000-45.957l-90.34-90.343a32.5 32.5 0 00-45.96 45.962l90.34 90.338a32.492 32.492 0 0045.96 0zM973.235 929.933a32.5 32.5 0 0045.956 0l90.344-90.335a32.5 32.5 0 10-45.956-45.958l-90.344 90.335a32.5 32.5 0 000 45.958zM1711.609 929.934a32.5 32.5 0 0045.956-45.957l-90.335-90.337a32.5 32.5 0 10-45.956 45.958zM1667.227 281.885l90.335-90.335a32.5 32.5 0 00-45.957-45.957l-90.334 90.335a32.5 32.5 0 1045.956 45.957z"/></g><g clip-path="url(#b)"><path d="M0-.001l932.5-19.086L692 1128.483H0z" fill="#416a67"/><g opacity=".06" fill="#fff" stroke="#416a67" stroke-width="32"><path d="M276.748 143.278c-59.674-63.85-156.331-63.878-216.086 0l-6.185 6.621-6.217-6.637c-59.726-63.855-156.337-63.851-216.063 0-59.686 63.81-59.684 167.151.04 230.938L28.882 584.478a35.63 35.63 0 0051.213 0l196.646-210.264c59.702-63.788 59.736-167.129.007-230.936zm-45.956 181.794l-.013.013L54.485 513.593l-176.307-188.521c-34.3-36.635-34.329-96.009-.03-132.67 34.243-36.607 89.735-36.792 124.167.016l29.228 31.2a31.031 31.031 0 0045.954-.035l29.132-31.185c34.307-36.677 89.836-36.716 124.161.011 34.309 36.651 34.314 96.014.002 132.663zM86.979-76.545v-136.573c0-19.186-14.55-34.74-32.5-34.74s-32.493 15.554-32.493 34.74v136.573c0 19.186 14.55 34.74 32.5 34.74s32.493-15.553 32.493-34.74zM-467.617 379.782h127.749c17.947 0 32.5-15.555 32.5-34.741s-14.549-34.741-32.5-34.741h-127.749c-17.95 0-32.5 15.555-32.5 34.741s14.55 34.741 32.5 34.741zM54.486 731.886c-17.946 0-32.5 15.553-32.5 34.74v136.572c0 19.187 14.55 34.74 32.5 34.74s32.5-15.553 32.5-34.74V766.626c-.007-19.186-14.557-34.74-32.5-34.74zM609.082 345.041c0-19.186-14.549-34.741-32.495-34.741H448.833c-17.948 0-32.5 15.555-32.5 34.741s14.548 34.741 32.5 34.741h127.754c17.946 0 32.495-15.555 32.495-34.741zM-201.385 71.499a36.458 36.458 0 000-49.13l-90.34-96.573a31.034 31.034 0 00-45.956 0 36.458 36.458 0 000 49.129l90.335 96.571a31.03 31.03 0 0045.961.003zM-337.685 764.283a31.033 31.033 0 0045.956 0l90.344-96.571a36.459 36.459 0 000-49.13 31.036 31.036 0 00-45.956 0l-90.344 96.571a36.459 36.459 0 000 49.13zM400.689 764.283a31.034 31.034 0 0045.956 0 36.455 36.455 0 000-49.129l-90.335-96.572a31.036 31.036 0 00-45.956 0 36.459 36.459 0 000 49.13zM356.307 71.502l90.335-96.571a36.458 36.458 0 000-49.129 31.035 31.035 0 00-45.957 0l-90.334 96.571a36.458 36.458 0 000 49.129 31.034 31.034 0 0045.956 0z"/></g></g></svg>