<svg version="1.1" id="Layer_1" xmlns="http://www.w3.org/2000/svg" x="0" y="0" viewBox="0 0 64 64" xml:space="preserve"><style>.st0{fill:#606060}</style><path class="st0" d="M52.5 24.6h-2.2v-6.2C50.3 8.3 42.1.1 32 0a18.3 18.3 0 00-18.2 18.4v6.2h-2.2a3.7 3.7 0 00-3.7 3.7v32c0 2.1 1.7 3.7 3.7 3.7h40.9c2.1 0 3.7-1.7 3.7-3.7v-32c0-2.1-1.7-3.7-3.7-3.7zm-34.3-6.2a13.7 13.7 0 1127.5-.3v6.5H18.2v-6.2zm33.5 41.1H12.3V29h39.4v30.5z"/><path class="st0" d="M31.5 49.3c1.2.1 2.3-.9 2.3-2.1v-5.4c0-1.2-1-2.2-2.2-2.2-1.2 0-2.2 1-2.2 2.2V47c-.1 1.2.9 2.3 2.1 2.3z"/></svg>