<svg version="1.1" id="Layer_1" xmlns="http://www.w3.org/2000/svg" x="0" y="0" viewBox="0 0 64 64" xml:space="preserve"><style>.st0{fill:#416a67}</style><g id="Group_3126"><path class="st0" d="M1244.9 101.7l-.2.2.2-.2c-3.5-3.5-9.2-3.5-12.7 0l-.2.2-.2-.2c-3.5-3.5-9.2-3.5-12.7 0s-3.5 9.2 0 12.7l11.3 11.3c.5.4 1 .6 1.6.6.6 0 1.2-.2 1.6-.6l11.3-11.3c3.5-3.5 3.5-9.2 0-12.7zm-11.4 4.6l1.7-1.7c1.9-1.9 4.9-1.9 6.8 0 1.8 1.8 1.9 4.8.1 6.7l-10 10-9.9-9.9c-1.9-1.9-1.9-4.9 0-6.8.9-.9 2.1-1.4 3.4-1.4 1.3 0 2.5.5 3.4 1.4l1.7 1.7c.6.9 1.9.9 2.8 0zM1232 92.2c1.2 0 2.1-.9 2.1-2.1v-7.3c0-1.2-.9-2.1-2.1-2.1-1.2 0-2.1.9-2.1 2.1v7.3c0 1.1.9 2.1 2.1 2.1zM1211.4 112.6c0-1.1-.9-2-2-2h-7.3c-1.2 0-2.1 1-2 2.2 0 1.1.9 2 2 2h7.3c1.2-.1 2.1-1 2-2.2zM1232 133.2c-1.2 0-2.1.9-2.1 2.1v7.3c0 1.2.9 2.1 2.1 2.1 1.2 0 2.1-.9 2.1-2.1v-7.3c0-1.2-1-2.1-2.1-2.1zM1261.9 110.6h-7.3c-1.2 0-2.1 1-2 2.2 0 1.1.9 2 2 2h7.3c1.2 0 2.1-.9 2.1-2.1 0-1.2-1-2.1-2.1-2.1zM1214.5 98.2c.4.4.9.6 1.5.6s1.1-.2 1.5-.6c.4-.4.6-.9.6-1.5s-.2-1.1-.6-1.5l-5.2-5.2c-.8-.8-2.1-.8-3 0-.8.8-.8 2.2 0 3l5.2 5.2zM1214.5 127.2l-5.2 5.2c-.8.8-.8 2.2 0 3 .4.4.9.6 1.5.6.5 0 1.1-.2 1.5-.6l5.2-5.2c.4-.4.6-.9.6-1.5s-.2-1.1-.6-1.5c-.8-.8-2.2-.8-3 0zM1249.4 127.2c-.8-.8-2.2-.8-3 0-.4.4-.6.9-.6 1.5s.2 1.1.6 1.5l5.2 5.2c.4.4.9.6 1.5.6.5 0 1.1-.2 1.5-.6.8-.8.8-2.2 0-3l-5.2-5.2zM1247.9 98.8c.5 0 1.1-.2 1.5-.6l5.2-5.2c.8-.8.8-2.2 0-3-.8-.8-2.2-.8-3 0l-5.2 5.2c-.4.4-.6.9-.6 1.5s.2 1.1.6 1.5c.5.4 1 .6 1.5.6z" transform="translate(-1200 -80.674)"/></g></svg>