<?xml version="1.0" standalone="no"?>
<!DOCTYPE svg PUBLIC "-//W3C//DTD SVG 20010904//EN"
 "http://www.w3.org/TR/2001/REC-SVG-20010904/DTD/svg10.dtd">
<svg version="1.0" xmlns="http://www.w3.org/2000/svg"
 width="700.000000pt" height="700.000000pt" viewBox="0 0 700.000000 700.000000"
 preserveAspectRatio="xMidYMid meet">
<metadata>
Created by potrace 1.14, written by Peter Selinger 2001-2017
</metadata>
<g transform="translate(0.000000,700.000000) scale(0.100000,-0.100000)"
fill="#000000" stroke="none">
<path d="M3427 6985 c-54 -19 -104 -60 -130 -108 -22 -41 -22 -48 -25 -492 -2
-393 -1 -455 13 -492 21 -55 48 -88 99 -121 35 -23 52 -27 116 -27 66 0 81 4
121 29 53 34 87 79 100 133 5 21 9 234 9 473 l0 435 -24 51 c-13 28 -40 64
-61 81 -53 44 -151 61 -218 38z"/>
<path d="M1118 6035 c-108 -37 -162 -108 -162 -214 -1 -46 5 -78 18 -106 13
-25 139 -159 335 -355 341 -341 341 -340 447 -340 89 1 168 51 203 131 28 63
23 161 -12 215 -14 21 -164 177 -333 345 -323 320 -332 328 -424 334 -20 1
-53 -3 -72 -10z"/>
<path d="M5757 6039 c-21 -5 -50 -15 -65 -23 -15 -8 -169 -158 -344 -333 -340
-342 -339 -341 -337 -443 2 -117 88 -206 210 -217 109 -10 116 -6 463 341 187
187 319 327 330 350 82 173 -72 369 -257 325z"/>
<path d="M2665 4980 c-98 -15 -121 -20 -185 -41 -395 -130 -665 -493 -675
-906 -5 -233 62 -444 199 -622 76 -99 1328 -1347 1377 -1372 59 -29 133 -35
202 -15 57 16 67 27 725 684 480 480 681 688 715 739 121 182 176 364 172 570
-2 124 -11 179 -42 277 -133 427 -528 708 -968 691 -105 -5 -133 -9 -235 -36
-140 -38 -290 -121 -399 -221 l-51 -47 -53 47 c-143 129 -306 210 -502 247
-50 10 -227 12 -280 5z m294 -470 c97 -29 170 -83 320 -234 135 -136 154 -149
226 -151 73 -2 102 18 265 178 144 141 197 179 295 210 87 27 222 28 306 3
177 -53 325 -215 363 -396 24 -119 10 -232 -46 -350 -28 -59 -83 -117 -604
-640 l-573 -574 -559 559 c-372 372 -571 578 -595 616 -104 166 -109 371 -15
539 68 120 214 227 347 254 76 16 191 10 270 -14z"/>
<path d="M154 3713 c-180 -60 -192 -341 -18 -423 47 -22 54 -22 478 -21 237 0
441 2 453 5 113 25 188 128 178 245 -8 89 -52 153 -130 188 -36 16 -82 18
-480 18 -346 1 -449 -1 -481 -12z"/>
<path d="M5901 3715 c-47 -15 -105 -67 -126 -112 -10 -21 -19 -63 -20 -93 -4
-100 35 -171 117 -215 l50 -27 449 0 c422 1 451 2 493 20 89 40 136 119 132
220 -4 87 -52 159 -131 197 -37 18 -69 20 -485 21 -307 0 -456 -3 -479 -11z"/>
<path d="M1690 1970 c-58 -16 -100 -53 -401 -357 -305 -306 -317 -320 -329
-370 -13 -57 -9 -113 13 -165 20 -46 88 -105 139 -119 53 -14 134 -7 179 16
18 10 171 156 341 325 322 322 348 354 348 436 0 93 -47 177 -120 214 -41 21
-130 31 -170 20z"/>
<path d="M5185 1970 c-139 -31 -215 -187 -155 -318 28 -62 619 -653 681 -681
185 -84 371 84 312 282 -14 48 -36 73 -321 360 -169 170 -325 319 -347 333
-43 25 -118 36 -170 24z"/>
<path d="M3439 1246 c-58 -15 -115 -59 -142 -110 -22 -40 -22 -50 -24 -498 -2
-301 1 -466 8 -485 60 -162 269 -207 387 -83 60 62 62 79 62 555 0 477 -2 492
-62 554 -63 64 -145 88 -229 67z"/>
</g>
</svg>
