<svg xmlns="http://www.w3.org/2000/svg" width="40.3" height="40.3"><g fill="#f2f2f2" stroke="#f2f2f2" stroke-width=".3"><path d="M28.169 13.34a5.508 5.508 0 00-7.8 0l-.223.223-.224-.224a5.511 5.511 0 10-7.794 7.794l7.095 7.1a1.348 1.348 0 001.848 0l7.095-7.1a5.507 5.507 0 00.003-7.793zm-1.658 6.135h0l-6.361 6.362-6.361-6.363a3.166 3.166 0 114.479-4.477l1.055 1.053a1.172 1.172 0 001.658 0l1.051-1.052a3.167 3.167 0 014.48 4.478zM21.323 5.932v-4.61a1.172 1.172 0 10-2.345 0v4.61a1.172 1.172 0 102.345 0zM1.322 21.323h4.61a1.173 1.173 0 000-2.345h-4.61a1.173 1.173 0 000 2.345zM20.15 33.196a1.173 1.173 0 00-1.172 1.169v4.609a1.172 1.172 0 102.345 0v-4.609a1.172 1.172 0 00-1.173-1.169zM40.15 20.151a1.173 1.173 0 00-1.172-1.173h-4.612a1.173 1.173 0 000 2.345h4.609a1.173 1.173 0 001.175-1.172zM10.928 10.929a1.172 1.172 0 000-1.658l-3.259-3.26a1.172 1.172 0 00-1.658 1.658l3.259 3.259a1.172 1.172 0 001.658.001zM6.011 34.289a1.172 1.172 0 001.658 0l3.259-3.259a1.172 1.172 0 10-1.658-1.658l-3.259 3.259a1.172 1.172 0 000 1.658zM32.631 34.289a1.172 1.172 0 001.658-1.658l-3.259-3.259a1.172 1.172 0 10-1.658 1.658zM31.03 10.929l3.259-3.259a1.172 1.172 0 00-1.658-1.658l-3.259 3.259a1.172 1.172 0 101.658 1.658z"/></g></svg>